<svg id="Capa_1" enable-background="new 0 0 512 512" height="512" viewBox="0 0 512 512" width="512" xmlns="http://www.w3.org/2000/svg" xmlns:xlink="http://www.w3.org/1999/xlink"><linearGradient id="SVGID_1_" gradientUnits="userSpaceOnUse" x1="256" x2="256" y1="481" y2="31"><stop offset="0" stop-color="#5558ff"/><stop offset="1" stop-color="#00c0ff"/></linearGradient><linearGradient id="SVGID_2_" gradientUnits="userSpaceOnUse" x1="256" x2="256" y1="451" y2="181"><stop offset="0" stop-color="#addcff"/><stop offset=".5028" stop-color="#eaf6ff"/><stop offset="1" stop-color="#eaf6ff"/></linearGradient><g><g><g><path d="m447.03 154.97c-10.488-34.878-41.235-60.073-79.014-63.428-24.975-37.544-67.162-60.542-112.016-60.542-44.736 0-86.821 22.881-111.826 60.264-37.075 2.798-68.555 28.257-79.204 63.706-37.603 11.294-64.97 46.025-64.97 86.03 0 49.629 41.371 90 91 90h330c49.629 0 91-40.371 91-90 0-40.005-27.367-74.736-64.97-86.03zm-101.03 296.03c-8.401 0-15-6.599-15-15s6.599-15 15-15l-36.632-30h-128.368c-16.5 0-30 43.5-30 60s13.5 30 30 30h165c8.401 0 15-6.599 15-15s-6.599-15-15-15z" fill="url(#SVGID_1_)"/></g></g><g><g><path d="m346 181h-150c-24.814 0-45 20.186-45 45v225c0-16.5 13.5-30 30-30h165c8.291 0 15-6.709 15-15v-210c0-8.291-6.709-15-15-15zm-60 120h-60c-8.291 0-15-6.709-15-15s6.709-15 15-15h60c8.291 0 15 6.709 15 15s-6.709 15-15 15z" fill="url(#SVGID_2_)"/></g></g></g></svg>